<svg id="visual" viewBox="0 0 1920 800" width="1920" height="800" xmlns="http://www.w3.org/2000/svg" xmlns:xlink="http://www.w3.org/1999/xlink" version="1.1"><rect x="0" y="0" width="1920" height="800" fill="#001220"></rect><path d="M1183 800L1170.8 786.7C1158.7 773.3 1134.3 746.7 1143.3 720C1152.3 693.3 1194.7 666.7 1227 640C1259.3 613.3 1281.7 586.7 1292.8 560C1304 533.3 1304 506.7 1313.8 480C1323.7 453.3 1343.3 426.7 1344.3 400C1345.3 373.3 1327.7 346.7 1294.2 320C1260.7 293.3 1211.3 266.7 1178.7 240C1146 213.3 1130 186.7 1140.5 160C1151 133.3 1188 106.7 1198.8 80C1209.7 53.3 1194.3 26.7 1186.7 13.3L1179 0L1920 0L1920 13.3C1920 26.7 1920 53.3 1920 80C1920 106.7 1920 133.3 1920 160C1920 186.7 1920 213.3 1920 240C1920 266.7 1920 293.3 1920 320C1920 346.7 1920 373.3 1920 400C1920 426.7 1920 453.3 1920 480C1920 506.7 1920 533.3 1920 560C1920 586.7 1920 613.3 1920 640C1920 666.7 1920 693.3 1920 720C1920 746.7 1920 773.3 1920 786.7L1920 800Z" fill="#520f2b"></path><path d="M1351 800L1355.3 786.7C1359.7 773.3 1368.3 746.7 1372 720C1375.7 693.3 1374.3 666.7 1360.2 640C1346 613.3 1319 586.7 1299.7 560C1280.3 533.3 1268.7 506.7 1258.3 480C1248 453.3 1239 426.7 1267.3 400C1295.7 373.3 1361.3 346.7 1375 320C1388.7 293.3 1350.3 266.7 1343.5 240C1336.7 213.3 1361.3 186.7 1351.8 160C1342.3 133.3 1298.7 106.7 1275.7 80C1252.7 53.3 1250.3 26.7 1249.2 13.3L1248 0L1920 0L1920 13.3C1920 26.7 1920 53.3 1920 80C1920 106.7 1920 133.3 1920 160C1920 186.7 1920 213.3 1920 240C1920 266.7 1920 293.3 1920 320C1920 346.7 1920 373.3 1920 400C1920 426.7 1920 453.3 1920 480C1920 506.7 1920 533.3 1920 560C1920 586.7 1920 613.3 1920 640C1920 666.7 1920 693.3 1920 720C1920 746.7 1920 773.3 1920 786.7L1920 800Z" fill="#681337"></path><path d="M1464 800L1462.2 786.7C1460.3 773.3 1456.7 746.7 1458.5 720C1460.3 693.3 1467.7 666.7 1467.7 640C1467.7 613.3 1460.3 586.7 1464 560C1467.7 533.3 1482.3 506.7 1490.5 480C1498.7 453.3 1500.3 426.7 1500.3 400C1500.3 373.3 1498.7 346.7 1485.3 320C1472 293.3 1447 266.7 1441.5 240C1436 213.3 1450 186.7 1459.8 160C1469.7 133.3 1475.3 106.7 1488.7 80C1502 53.3 1523 26.7 1533.5 13.3L1544 0L1920 0L1920 13.3C1920 26.7 1920 53.3 1920 80C1920 106.7 1920 133.3 1920 160C1920 186.7 1920 213.3 1920 240C1920 266.7 1920 293.3 1920 320C1920 346.7 1920 373.3 1920 400C1920 426.7 1920 453.3 1920 480C1920 506.7 1920 533.3 1920 560C1920 586.7 1920 613.3 1920 640C1920 666.7 1920 693.3 1920 720C1920 746.7 1920 773.3 1920 786.7L1920 800Z" fill="#7e1743"></path><path d="M1502 800L1503.8 786.7C1505.7 773.3 1509.3 746.7 1516.5 720C1523.7 693.3 1534.3 666.7 1553.8 640C1573.3 613.3 1601.7 586.7 1616 560C1630.3 533.3 1630.7 506.7 1633.7 480C1636.7 453.3 1642.3 426.7 1627.2 400C1612 373.3 1576 346.7 1557.3 320C1538.7 293.3 1537.3 266.7 1556.7 240C1576 213.3 1616 186.7 1610.5 160C1605 133.3 1554 106.7 1546.8 80C1539.7 53.3 1576.3 26.7 1594.7 13.3L1613 0L1920 0L1920 13.3C1920 26.7 1920 53.3 1920 80C1920 106.7 1920 133.3 1920 160C1920 186.7 1920 213.3 1920 240C1920 266.7 1920 293.3 1920 320C1920 346.7 1920 373.3 1920 400C1920 426.7 1920 453.3 1920 480C1920 506.7 1920 533.3 1920 560C1920 586.7 1920 613.3 1920 640C1920 666.7 1920 693.3 1920 720C1920 746.7 1920 773.3 1920 786.7L1920 800Z" fill="#961b4f"></path><path d="M1668 800L1681.7 786.7C1695.3 773.3 1722.7 746.7 1715 720C1707.3 693.3 1664.7 666.7 1652.5 640C1640.3 613.3 1658.7 586.7 1661.2 560C1663.7 533.3 1650.3 506.7 1659.7 480C1669 453.3 1701 426.7 1704 400C1707 373.3 1681 346.7 1664.7 320C1648.3 293.3 1641.7 266.7 1649.2 240C1656.7 213.3 1678.3 186.7 1676.2 160C1674 133.3 1648 106.7 1656.3 80C1664.7 53.3 1707.3 26.7 1728.7 13.3L1750 0L1920 0L1920 13.3C1920 26.7 1920 53.3 1920 80C1920 106.7 1920 133.3 1920 160C1920 186.7 1920 213.3 1920 240C1920 266.7 1920 293.3 1920 320C1920 346.7 1920 373.3 1920 400C1920 426.7 1920 453.3 1920 480C1920 506.7 1920 533.3 1920 560C1920 586.7 1920 613.3 1920 640C1920 666.7 1920 693.3 1920 720C1920 746.7 1920 773.3 1920 786.7L1920 800Z" fill="#ae1f5b"></path><path d="M1801 800L1792.8 786.7C1784.7 773.3 1768.3 746.7 1768.7 720C1769 693.3 1786 666.7 1780.3 640C1774.7 613.3 1746.3 586.7 1741.3 560C1736.3 533.3 1754.7 506.7 1758.8 480C1763 453.3 1753 426.7 1747 400C1741 373.3 1739 346.7 1744.5 320C1750 293.3 1763 266.7 1760 240C1757 213.3 1738 186.7 1729.2 160C1720.3 133.3 1721.7 106.7 1738.2 80C1754.7 53.3 1786.3 26.7 1802.2 13.3L1818 0L1920 0L1920 13.3C1920 26.7 1920 53.3 1920 80C1920 106.7 1920 133.3 1920 160C1920 186.7 1920 213.3 1920 240C1920 266.7 1920 293.3 1920 320C1920 346.7 1920 373.3 1920 400C1920 426.7 1920 453.3 1920 480C1920 506.7 1920 533.3 1920 560C1920 586.7 1920 613.3 1920 640C1920 666.7 1920 693.3 1920 720C1920 746.7 1920 773.3 1920 786.7L1920 800Z" fill="#c62368"></path></svg>