<svg width="47" height="46" viewBox="0 0 47 46" fill="none" xmlns="http://www.w3.org/2000/svg">
<ellipse cx="23.5" cy="23" rx="23.5" ry="23" fill="#001220"/>
<circle cx="26.5" cy="25.5" r="20.5" fill="#C62368"/>
<path d="M24.728 34V21.088H28.472V34H24.728ZM26.6 19.288C25.912 19.288 25.352 19.088 24.92 18.688C24.488 18.288 24.272 17.792 24.272 17.2C24.272 16.608 24.488 16.112 24.92 15.712C25.352 15.312 25.912 15.112 26.6 15.112C27.288 15.112 27.848 15.304 28.28 15.688C28.712 16.056 28.928 16.536 28.928 17.128C28.928 17.752 28.712 18.272 28.28 18.688C27.864 19.088 27.304 19.288 26.6 19.288Z" fill="#F1F1F1"/>
</svg>
